<svg version="1.2" baseProfile="tiny-ps" xmlns="http://www.w3.org/2000/svg" viewBox="0 0 20 14" width="20" height="14">
	<title>team</title>
	<style>
		tspan { white-space:pre }
		.shp0 { fill: #c6cacc } 
	</style>
	<g id="team">
		<g id="team 1">
			<g id="social icons">
				<path id="Shape 3" class="shp0" d="M17.54 5.09C18.32 5.37 19.11 5.36 19.92 5.06C19.7 5.65 19.02 6 17.87 6.12C17.86 6.12 17.86 6.12 17.86 6.12L17.86 6.23C18.92 6.44 19.63 6.47 19.99 6.35L20 6.37C19.51 7 18.73 7.3 17.64 7.26C17.47 8.11 17.04 8.99 16.37 9.92C14.91 11.69 13.14 12.86 11.05 13.42L11.02 13.42C8.87 14 6.71 13.95 4.55 13.28C2.67 12.57 1.15 11.45 0 9.89C1.14 10.78 2.19 11.22 3.18 11.23L3.2 11.22C4.82 11.32 6.2 10.82 7.34 9.71C7.34 9.7 7.35 9.7 7.36 9.69L7.32 9.65L7.32 9.65C6.66 9.68 6.21 9.48 5.96 9.05C5.89 8.77 5.96 8.52 6.17 8.31C6.29 8.17 6.47 8.05 6.7 7.94C5.54 7.97 4.73 7.57 4.28 6.73C4.63 6.36 5.07 6.18 5.62 6.21L5.62 6.19C4.24 5.82 3.51 5.15 3.44 4.18C3.8 4.07 4.16 4.02 4.55 4.03L4.55 4.01C3.47 3.4 2.92 2.57 2.93 1.52C3.92 1.82 4.9 2.21 5.87 2.68C6.75 3.05 7.52 3.44 8.17 3.84C8.73 4.15 9.19 4.53 9.58 4.99L9.59 4.97L9.69 4.9C9.96 3.89 10.41 2.9 11.05 1.92L11.07 1.89C11.32 1.53 11.64 1.13 12.04 0.7C12.24 0.51 12.46 0.33 12.72 0.17C12.77 0.2 12.69 0.37 12.49 0.69C13.03 0.24 13.54 0.01 14.02 0C14.12 0.11 13.93 0.31 13.45 0.6C13.83 0.46 14.26 0.37 14.72 0.31C14.92 0.33 14.99 0.43 14.93 0.61C14.77 0.83 14.23 1.04 13.31 1.24C13.3 1.24 13.3 1.24 13.29 1.24L13.32 1.31C14.33 1.27 15.21 1.59 15.96 2.25C15.97 2.26 15.99 2.28 16 2.28C16.88 3.13 17.39 4.06 17.54 5.09Z" />
			</g>
		</g>
	</g>
</svg>